<svg xmlns="http://www.w3.org/2000/svg" data-name="Ebene 1" viewBox="0 0 56 56" x="0px" y="0px"><path d="M16.50488,46.23145a1.00131,1.00131,0,0,1-.94043-1.34034l8.89063-24.62353a1,1,0,1,1,1.88086.67969L17.44531,45.5708A.99993.99993,0,0,1,16.50488,46.23145Z"></path><path d="M44.21,6.54,37.05,2.95a2.02867,2.02867,0,0,0-1.53-.1,1.956,1.956,0,0,0-1.15,1L31.84,8.91,22.6,13.33a2.97175,2.97175,0,0,0-1.53,1.68L10.33,44.77a2.99473,2.99473,0,0,0,1.48,3.7l11.13,5.57A3.02123,3.02123,0,0,0,26.79,53L44.14,26.55a2.9734,2.9734,0,0,0,.44-2.23L42.57,14.28,45.1,9.21A1.99445,1.99445,0,0,0,44.21,6.54ZM25.12,51.9a1.00164,1.00164,0,0,1-1.29.35L12.7,46.68a.99523.99523,0,0,1-.49-1.23L22.84,15.98,42.3,25.7Zm-.56-37.3,8.01-3.82,8.07,4.03,1.74,8.71Zm16.52-1.81L33.92,9.21l2.23-4.47,7.16,3.58Z"></path><path d="M10.5166,14.7124a1.0003,1.0003,0,0,1-.99609-.91845,6.023,6.023,0,0,1,5.45508-6.50049.99992.99992,0,1,1,.18554,1.99121,4.02233,4.02233,0,0,0-3.64648,4.34619,1.0004,1.0004,0,0,1-.915,1.07812C10.57129,14.71143,10.544,14.7124,10.5166,14.7124Z"></path><path d="M6.544,15.06006a1.0006,1.0006,0,0,1-.99512-.90967,9.98046,9.98046,0,0,1,9.08789-10.831,1.00011,1.00011,0,0,1,.168,1.99316A7.98087,7.98087,0,0,0,7.541,13.96973a1.00051,1.00051,0,0,1-.90528,1.08642C6.60449,15.05859,6.57422,15.06006,6.544,15.06006Z"></path><path d="M41.45215,45.83984a.99993.99993,0,0,1-.0918-1.9956,4.0224,4.0224,0,0,0,3.64649-4.34668,1.0004,1.0004,0,0,1,1.99414-.16309,6.02206,6.02206,0,0,1-5.45508,6.501Q41.499,45.83985,41.45215,45.83984Z"></path><path d="M41.79883,49.8125a1.00008,1.00008,0,0,1-.083-1.99658,7.979,7.979,0,0,0,7.26465-8.65772,1.00051,1.00051,0,0,1,.90625-1.08593,1.01138,1.01138,0,0,1,1.08594.90625,9.97953,9.97953,0,0,1-9.08887,10.83056C41.85547,49.81152,41.82715,49.8125,41.79883,49.8125Z"></path></svg>